<svg fill="none" height="32" viewBox="0 0 102 32" width="102" xmlns="http://www.w3.org/2000/svg"><g fill="#fff"><path d="m8.09996 25.8877h12.09734l-.9047 5.1264h-19.2926l.694282-3.9919 15.695018-21.45118h-12.09737l.90467-5.147444h19.1874l-.6732 3.907854z"/><path d="m39.5648 17.7778h-9.3412l-1.4096 8.1099h11.0664l-.9047 5.1264h-17.0835l5.3018-30.590524h17.0625l-.9047 5.147444h-11.0033l-1.2623 7.22738h9.3623z"/><path d="m66.2959.423576-3.5766 21.009924c-.4348 3.1796-1.6199 5.6587-3.5555 7.4376-1.9356 1.7788-4.4743 2.6402-7.6161 2.5842-2.9454-.056-5.1755-.9805-6.6903-2.7733-1.5148-1.7929-2.0969-4.209-1.7463-7.2485l3.5766-21.009924h6.0592l-3.5345 21.031024-.0842 1.8068c0 1.9609.9748 2.9764 2.9244 3.0465 1.3465.042 2.3985-.3152 3.1559-1.0716.7574-.7563 1.2553-2.0169 1.4937-3.7817l3.5556-21.031024z"/><path d="m78.2788 22.8202c.1403-1.0365-.014-1.8979-.4628-2.5842-.4348-.7004-1.3535-1.3797-2.7561-2.038-1.3886-.6723-2.5527-1.3656-3.4925-2.08-2.5667-1.9469-3.7449-4.4051-3.5345-7.37448.1263-1.70881.6592-3.22853 1.599-4.55916.9537-1.34464 2.2231-2.38813 3.808-3.13049 1.5849-.742347 3.2821-1.0925133 5.0914-1.0504934 2.6228.0560266 4.6706.9664584 6.1434 2.7312934 1.4867 1.75083 2.174 3.9989 2.0618 6.7442l-6.0172-.02101c.1543-2.87136-.7644-4.32805-2.756-4.37007-1.0239-.02802-1.9076.30814-2.6509 1.00848-.7294.68632-1.1712 1.57574-1.3255 2.66826-.2104 1.63877.9257 3.03947 3.4083 4.20197 2.4826 1.1626 4.2639 2.4722 5.3439 3.9289 1.2062 1.6108 1.7181 3.5717 1.5358 5.8828-.2104 2.6612-1.2623 4.7903-3.1558 6.387-1.8935 1.5828-4.2569 2.3461-7.0901 2.2901-2.8473-.056-5.0984-1.0225-6.7535-2.8994-1.655-1.8769-2.4124-4.279-2.2722-7.2064l6.0592.021c-.1122 1.8069.1192 3.1025.6943 3.8869.5891.7703 1.5078 1.1555 2.7561 1.1555 1.094-.014 1.9566-.3502 2.5878-1.0085.6311-.6723 1.0239-1.5337 1.1781-2.5842z"/></g><path d="m95.8998 3.81348-9.1515 14.89492h6.101v8.937l9.1517-14.8949h-6.1012z" fill="#f8b833"/></svg>